<svg xmlns="http://www.w3.org/2000/svg" width="384" height="404" viewBox="0 0 384 404" fill="none"><path d="M123.764 281.815C117.568 295.446 103.337 301.522 90.7257 308.117L17.8541 346.232C-11.4265 361.562 3.1838 401.735 34.583 401.735C104.377 401.735 159.58 367.878 222.658 341.775C238.548 335.2 246.243 336.599 261.832 343.594" stroke="#EFE6E3" stroke-width="4" stroke-linecap="round" stroke-linejoin="round"></path><path d="M121.924 343.593C137.514 336.598 145.209 335.199 161.099 341.775C224.177 367.877 279.38 401.735 349.174 401.735C380.553 401.735 395.183 361.562 365.903 346.232L293.031 308.117C280.419 301.521 266.169 295.445 259.993 281.814M181.885 121.92C150.08 121.92 119.578 134.555 97.0881 157.044C74.5987 179.534 61.9642 210.036 61.9642 241.841C93.7691 241.841 124.271 229.207 146.761 206.717C169.25 184.228 181.885 153.725 181.885 121.92ZM181.885 121.92C213.69 121.92 244.192 134.555 266.681 157.044C289.171 179.534 301.805 210.036 301.805 241.841C270 241.841 239.498 229.207 217.009 206.717C194.519 184.228 181.885 153.725 181.885 121.92ZM141.911 41.9735C141.911 52.5751 146.123 62.7425 153.619 70.239C161.116 77.7355 171.283 81.947 181.885 81.947C192.486 81.947 202.654 77.7355 210.15 70.239C217.647 62.7425 221.858 52.5751 221.858 41.9735C221.858 31.3719 217.647 21.2044 210.15 13.708C202.654 6.21148 192.486 2 181.885 2C171.283 2 161.116 6.21148 153.619 13.708C146.123 21.2044 141.911 31.3719 141.911 41.9735Z" stroke="#EFE6E3" stroke-width="4" stroke-linecap="round" stroke-linejoin="round"></path></svg>